<?xml version="1.0" encoding="UTF-8" standalone="no"?>
<svg xmlns="http://www.w3.org/2000/svg" width="60" height="60" version="1.0">
  <path fill="#0d3c07" fill-rule="evenodd" d="M56.02661024 17.09419638C55.6103908 12.92743622 38.11184325-.96953778 34.14679494.2884188c-7.27784438 1.00903767-5.95172376 8.19986314-8.82856765 9.08486542-2.89649024.4391842-28.03188873 2.81872304-16.6622606 26.16605716 2.06852406 4.1822343 3.38239034 4.96675568 5.54448602 6.33787312 2.10392293 1.23278512 5.48198225 1.30493542 8.22115474-1.36171629 2.50215481-3.21817856 1.42176056-6.39081724.26127758-9.056205-3.65184698-7.97888668 3.08658648-8.07463335 6.8137445-9.75904778.87112684 2.79215748 2.47629661 9.38140114 4.64030768 9.28973802 2.16402835-.09164815 22.42847055-5.57293934 21.88967303-13.89578707z"/>
  <path fill="#e75918" fill-rule="evenodd" d="M52.93078807 16.8281071c-.13627178-3.12177375-14.96458188-14.20997782-18.21870671-13.1210842-3.25428899 1.08895122-1.60118694 5.05704115-2.99649315 7.26108432-31.69483927.5675993-23.43053683 31.223743-13.16281892 27.66840932 5.6232909-1.88792658-3.9597609-9.82617964.49782872-15.20580824 3.7807233-4.6934192 13.7633461-5.5756991 13.96850973-4.4212345.4103359 2.30896663.91498988 9.21265904 2.6625828 9.066197 1.74761883-.14646204 18.01111536-7.96768308 17.24909753-11.24756372z"/>
  <path fill="#fff" fill-rule="evenodd" d="M10.07969793 30.33902277c1.24083089-6.85986524 3.06738506-10.8820032 7.38483238-13.70960385 4.75073853-3.2706515 12.81548269-3.77239786 13.05917012-4.36726575.24365287-.59485292-5.84892165.98780169-10.55484678 2.20626445-8.82279384 2.25253727-10.66215443 11.13705342-9.88915572 15.87060515zm35.65898474-16.44053044c-1.0033121-1.01329025-8.06662758-6.12175877-9.99327538-6.47726746-1.92653548-.35540398-.64298197 2.72359712-.64298197 2.72359712s9.84327534 2.60423912 10.63625735 3.75367034z"/>
  <path fill="none" d="M46.42157077 25.83684262s7.91019107-2.8588032 7.89682567-2.76903229c-.0133654.08975596-1.4719564-1.44183177-1.4719564-1.44183177l-2.0503663.31874173-4.54545394 1.50040761.17095097 2.39171472z"/>
  <path fill="#a60010" fill-opacity=".98989999" fill-rule="evenodd" d="M52.83457793 16.80731536c.83609342 4.34266718-17.39059625 11.58044831-17.39059625 11.58044831-1.6721782-1.1580396-2.67548166-8.97484052-4.34765122-9.98813826-3.00991039 1.15804708-12.37407892 3.47413375-12.87572634 6.51400452-.50166469 3.03987076 2.00660693 9.11960481 2.3410443 10.56715805.6688661 2.1713448-1.50495952 4.19791784-3.67878513 3.3293844-2.1738256-.86853343-2.50826297-2.60560778-2.50826297-2.60560778s2.34104429.00000747 2.67548166-1.59231006c.33442873-1.59231005-4.5148699-9.40911098-2.00660693-12.44898174 2.50825434-3.03986329 12.54128897-7.23777365 18.72832844-6.80351067l2.50826297 8.97484052s2.50825434-.14474186 16.55451147-7.52728729z"/>
  <path fill="#0d3c07" fill-rule="evenodd" d="M6.78932377 36.57982185c-1.01912585 4.40794517 11.24623688 23.48278091 15.53136697 23.26250852 7.42115198.93562514 8.5889199-6.83643335 11.68853091-6.96769056 2.96637311.33361028 28.21899843 4.70433618 25.14215236-22.44779958-.58214633-4.87244434-1.59155912-6.03777584-3.2252722-8.03801833-1.62442035-1.84186216-4.88430217-2.83326956-8.45886005-.82817525-3.53256417 2.6379323-3.5662023 6.20147353-3.34863646 9.26389934.82428157 9.21572706-5.76031297 7.4851458-9.95986363 8.2095762.1070978-3.1145446.79797587-10.34226613-1.33744577-10.83524415-2.13543334-.49299813-23.71185558-.34423114-26.03197213 8.38094381z"/>
  <path fill="#e75918" fill-rule="evenodd" d="M9.70851148 37.69451641c-.93424111 3.25481169 9.6945946 18.70957709 13.230713 18.47057557 3.5362977-.23901631 3.28489704-4.77795386 5.39471638-6.67102464 31.01130792 8.01909432 33.45130586-25.82371503 22.25296246-24.9463619-6.11273033.4194631.49243296 11.20344278-5.68001725 15.53848493-5.27983886 3.81146885-15.28757192 2.01092348-15.09256383.76524513.39002056-2.4913976 2.25839634-9.74448663.5091388-10.0679353-1.74928273-.3234557-20.2351038 3.32336285-20.61494956 6.91101621z"/>
  <path fill="#fff" fill-rule="evenodd" d="M55.99006044 35.4006533c-3.55055996 6.73406898-6.70094846 10.3840997-11.86508374 12.1266425-5.73682537 2.08159956-13.74974512.40945714-14.18995804.95647321-.4401742.54701004 6.02453304.5696067 11.01653304.59116805 9.3482446.07327346 14.17260643-8.58525474 15.03850874-13.67428377zm-40.28963773 7.26604174c.62928393 1.31683295 5.75143553 8.49993748 7.5032625 9.3894083 1.75175354.88933238 1.5558601-2.6328418 1.5558601-2.6328418s-8.68086636-5.35650211-9.0591226-6.7565665z"/>
  <path fill="none" d="M19.11588994 30.17566697s-8.66807455.79938791-8.6244036.7104834c.04366586-.0888891.93851684 1.8857812.93851684 1.8857812l2.10251813.22806212 4.9323148-.31262072.65105383-2.511706z"/>
  <path fill="#a60010" fill-opacity=".98989999" fill-rule="evenodd" d="M9.79495327 37.74206586c.67098539-4.70324677 20.86628069-7.21572984 20.86628069-7.21572984 1.23016993 1.64761183-.46537966 9.97726978.81424155 11.47568428 3.32229555-.3765791 13.2186421-.22184393 14.7451543-3.21905774 1.526529-2.99720911 1.16520367-9.94490935 1.33466823-11.52778725.09162118-2.41972456 2.897763-3.91852151 4.71461906-2.43314121 1.81685606 1.4853803 1.54845934 3.36668672 1.54845934 3.36668672s-2.2762289-.63552793-3.14551746.91498954c-.8692776 1.5505121 1.17468992 10.9242373-2.30288382 13.37671782-3.47756278 2.45247515-14.66729486 4.05588362-20.53465159 1.92867264l.62796883-9.93187515s-2.48827191-.53171752-18.66833913 3.2648402z"/>
</svg>