<?xml version="1.0" encoding="UTF-8"?>
<svg id="Layer_1" data-name="Layer 1" xmlns="http://www.w3.org/2000/svg" viewBox="0 0 557 155">
  <defs>
    <style>
      .cls-1 {
        fill: none;
      }

      .cls-2, .cls-3 {
        fill: #a1a1a1;
      }

      .cls-4 {
        fill: #1a1a1a;
      }

      .cls-5 {
        fill: #333;
      }

      .cls-5, .cls-3, .cls-6, .cls-7 {
        fill-rule: evenodd;
      }

      .cls-6 {
        fill: #fff;
      }

      .cls-7 {
        fill: rgba(24, 24, 24, .99);
      }
    </style>
  </defs>
  <rect class="cls-2" width="557" height="155" rx="40" ry="40"/>
  <rect class="cls-4" x="20.86" y="17.96" width="119.04" height="119.04" rx="20.31" ry="20.31"/>
  <g>
    <path d="m167.94,92.32c-1.64,0-3.08-.31-4.32-.93-1.24-.62-2.2-1.49-2.89-2.6s-1.03-2.41-1.03-3.9v-10.47c0-1.51.34-2.81,1.03-3.92s1.65-1.96,2.89-2.58c1.24-.62,2.68-.93,4.32-.93s3.11.31,4.34.93c1.23.62,2.18,1.48,2.87,2.58.69,1.1,1.03,2.41,1.03,3.92h-5.06c0-.99-.28-1.74-.83-2.26-.55-.52-1.33-.78-2.35-.78s-1.79.26-2.35.78-.83,1.27-.83,2.26v10.47c0,.97.28,1.72.83,2.25.55.53,1.33.79,2.35.79s1.79-.26,2.35-.79c.55-.53.83-1.28.83-2.25h5.06c0,1.49-.34,2.79-1.03,3.9-.69,1.11-1.64,1.98-2.87,2.6-1.23.62-2.67.93-4.34.93Z"/>
    <path d="m187.93,92.32c-1.64,0-3.07-.31-4.29-.93-1.21-.62-2.16-1.49-2.82-2.6s-1-2.41-1-3.9v-4.39c0-1.49.33-2.79,1-3.9s1.6-1.98,2.82-2.6c1.22-.62,2.65-.93,4.29-.93s3.1.31,4.31.93c1.2.62,2.14,1.49,2.8,2.6s1,2.41,1,3.9v4.39c0,1.49-.33,2.79-1,3.9s-1.6,1.98-2.8,2.6c-1.21.62-2.64.93-4.31.93Zm0-4.39c.99,0,1.74-.26,2.26-.79.52-.53.78-1.28.78-2.25v-4.39c0-.99-.26-1.74-.78-2.26-.52-.52-1.27-.78-2.26-.78s-1.72.26-2.25.78c-.53.52-.79,1.27-.79,2.26v4.39c0,.97.26,1.72.79,2.25s1.28.79,2.25.79Z"/>
    <path d="m200.29,91.98v-18.57h4.9v3.38c.27-1.12.85-2.03,1.74-2.7.89-.67,1.97-1.01,3.26-1.01,1.8,0,3.25.63,4.34,1.89,1.09,1.26,1.64,2.94,1.64,5.03v11.99h-5.06v-11.48c0-.97-.25-1.72-.76-2.25-.51-.53-1.21-.79-2.11-.79s-1.6.26-2.11.79c-.51.53-.76,1.28-.76,2.25v11.48h-5.06Z"/>
    <path d="m225.3,91.98l-6.18-18.57h5.23l3.24,10.43c.2.63.39,1.28.56,1.96.17.67.28,1.31.32,1.89.04-.58.15-1.22.3-1.89.16-.68.33-1.32.51-1.92l3.17-10.47h5.3l-6.11,18.57h-6.35Z"/>
    <path d="m248.74,92.32c-1.64,0-3.08-.31-4.3-.93-1.23-.62-2.17-1.49-2.84-2.6s-1-2.41-1-3.9v-4.39c0-1.49.33-2.79,1-3.9s1.61-1.98,2.84-2.6c1.23-.62,2.66-.93,4.3-.93s3.07.31,4.27.93c1.2.62,2.14,1.49,2.8,2.6s1,2.41,1,3.9v3.44h-11.38v.95c0,1.17.28,2.03.83,2.57.55.54,1.38.81,2.48.81.72,0,1.35-.11,1.89-.34.54-.22.86-.56.95-1.01h4.96c-.36,1.62-1.25,2.93-2.67,3.92-1.42.99-3.13,1.49-5.13,1.49Zm-3.31-11.82v.44l6.55-.07v-.44c0-1.15-.26-2.04-.79-2.67-.53-.63-1.35-.95-2.45-.95s-1.93.33-2.48.98c-.55.65-.83,1.55-.83,2.7Z"/>
    <path d="m261.73,91.98v-18.57h4.9v3.51c.27-1.19.86-2.13,1.77-2.82.91-.69,2.05-1.03,3.43-1.03,1.87,0,3.33.63,4.39,1.89,1.06,1.26,1.59,2.99,1.59,5.2v1.86h-5.06v-1.52c0-.97-.26-1.72-.78-2.25-.52-.53-1.25-.79-2.19-.79s-1.68.3-2.19.89c-.52.6-.78,1.45-.78,2.55v11.07h-5.07Z"/>
    <path d="m291.08,91.98c-1.89,0-3.38-.54-4.46-1.62s-1.62-2.57-1.62-4.46v-7.93h-5v-4.56h5v-5.23h5.06v5.23h7.26v4.56h-7.26v7.77c0,.5.13.9.39,1.21.26.32.64.47,1.13.47h5.57v4.56h-6.08Z"/>
    <path d="m330,92.32c-1.64,0-3.08-.31-4.32-.93-1.24-.62-2.2-1.49-2.89-2.6s-1.03-2.41-1.03-3.9v-10.47c0-1.51.34-2.81,1.03-3.92s1.65-1.96,2.89-2.58c1.24-.62,2.68-.93,4.32-.93s3.11.31,4.34.93c1.23.62,2.18,1.48,2.87,2.58.69,1.1,1.03,2.41,1.03,3.92h-5.06c0-.99-.28-1.74-.83-2.26-.55-.52-1.33-.78-2.35-.78s-1.79.26-2.35.78-.83,1.27-.83,2.26v10.47c0,.97.28,1.72.83,2.25.55.53,1.33.79,2.35.79s1.79-.26,2.35-.79c.55-.53.83-1.28.83-2.25h5.06c0,1.49-.34,2.79-1.03,3.9-.69,1.11-1.64,1.98-2.87,2.6-1.23.62-2.67.93-4.34.93Z"/>
    <path d="m349.99,92.32c-1.64,0-3.07-.31-4.29-.93-1.21-.62-2.16-1.49-2.82-2.6s-1-2.41-1-3.9v-4.39c0-1.49.33-2.79,1-3.9s1.6-1.98,2.82-2.6c1.22-.62,2.65-.93,4.29-.93s3.1.31,4.31.93c1.2.62,2.14,1.49,2.8,2.6s1,2.41,1,3.9v4.39c0,1.49-.33,2.79-1,3.9s-1.6,1.98-2.8,2.6c-1.21.62-2.64.93-4.31.93Zm0-4.39c.99,0,1.74-.26,2.26-.79.52-.53.78-1.28.78-2.25v-4.39c0-.99-.26-1.74-.78-2.26-.52-.52-1.27-.78-2.26-.78s-1.72.26-2.25.78c-.53.52-.79,1.27-.79,2.26v4.39c0,.97.26,1.72.79,2.25s1.28.79,2.25.79Z"/>
    <path d="m361.41,91.98v-18.57h4.15v2.87h.07c.07-.95.38-1.72.95-2.31.56-.6,1.28-.89,2.16-.89.81,0,1.51.29,2.11.86s.98,1.32,1.17,2.25c.07-.95.39-1.7.98-2.26.58-.56,1.32-.84,2.19-.84,1.1,0,2.03.44,2.79,1.32.75.88,1.13,2.01,1.13,3.41v14.18h-4.36v-13.61c0-1.08-.43-1.62-1.28-1.62-.81,0-1.22.54-1.22,1.62v13.61h-3.98v-13.61c0-1.08-.4-1.62-1.21-1.62-.86,0-1.28.54-1.28,1.62v13.61h-4.36Z"/>
    <path d="m382.61,98.06v-24.65h4.9v3.38c.41-1.17,1.05-2.08,1.92-2.73.88-.65,1.94-.98,3.17-.98s2.24.31,3.14.93,1.6,1.47,2.11,2.55c.51,1.08.76,2.34.76,3.78v4.73c0,1.42-.25,2.67-.76,3.76-.51,1.09-1.21,1.95-2.11,2.57s-1.95.93-3.14.93-2.26-.32-3.14-.96c-.88-.64-1.52-1.54-1.92-2.68l.13,4.32v5.06h-5.06Zm8.04-10.13c.92,0,1.64-.26,2.14-.79.51-.53.76-1.28.76-2.25v-4.39c0-.99-.25-1.74-.76-2.26-.51-.52-1.22-.78-2.14-.78-.97,0-1.71.28-2.21.83s-.76,1.35-.76,2.38v4.05c0,1.04.25,1.83.76,2.38s1.24.83,2.21.83Z"/>
    <path d="m403.54,91.98v-18.57h4.9v3.51c.27-1.19.86-2.13,1.77-2.82.91-.69,2.05-1.03,3.43-1.03,1.87,0,3.33.63,4.39,1.89,1.06,1.26,1.59,2.99,1.59,5.2v1.86h-5.06v-1.52c0-.97-.26-1.72-.78-2.25-.52-.53-1.25-.79-2.19-.79s-1.68.3-2.19.89c-.52.6-.78,1.45-.78,2.55v11.07h-5.07Z"/>
    <path d="m431.06,92.32c-1.64,0-3.08-.31-4.3-.93-1.23-.62-2.17-1.49-2.84-2.6s-1-2.41-1-3.9v-4.39c0-1.49.33-2.79,1-3.9s1.61-1.98,2.84-2.6c1.23-.62,2.66-.93,4.3-.93s3.07.31,4.27.93c1.2.62,2.14,1.49,2.8,2.6s1,2.41,1,3.9v3.44h-11.38v.95c0,1.17.28,2.03.83,2.57.55.54,1.38.81,2.48.81.72,0,1.35-.11,1.89-.34.54-.22.86-.56.95-1.01h4.96c-.36,1.62-1.25,2.93-2.67,3.92-1.42.99-3.13,1.49-5.13,1.49Zm-3.31-11.82v.44l6.55-.07v-.44c0-1.15-.26-2.04-.79-2.67-.53-.63-1.35-.95-2.45-.95s-1.93.33-2.48.98c-.55.65-.83,1.55-.83,2.7Z"/>
    <path d="m450.51,92.32c-1.53,0-2.87-.24-4.02-.73-1.15-.48-2.04-1.15-2.68-2.01-.64-.85-.96-1.86-.96-3h4.96c0,.63.24,1.1.71,1.42.47.32,1.14.47,1.99.47h1.49c.92,0,1.64-.16,2.14-.47.51-.31.76-.76.76-1.35s-.2-.97-.61-1.23c-.4-.26-1.02-.43-1.86-.52l-4.25-.51c-1.64-.2-2.9-.82-3.78-1.84-.88-1.02-1.32-2.3-1.32-3.83,0-3.76,2.41-5.64,7.23-5.64h1.59c2.27,0,4.08.5,5.44,1.49s2.03,2.32,2.03,3.98h-4.96c0-.54-.22-.96-.66-1.25-.44-.29-1.05-.44-1.84-.44h-1.59c-.79,0-1.38.15-1.79.44-.41.29-.61.7-.61,1.22s.2.87.59,1.05c.39.18.95.32,1.67.4l4.05.51c1.82.23,3.2.87,4.12,1.92.92,1.06,1.38,2.45,1.38,4.19,0,1.82-.65,3.24-1.96,4.24-1.31,1-3.23,1.5-5.77,1.5h-1.49Z"/>
    <path d="m470.77,92.32c-1.53,0-2.87-.24-4.02-.73-1.15-.48-2.04-1.15-2.68-2.01-.64-.85-.96-1.86-.96-3h4.96c0,.63.24,1.1.71,1.42.47.32,1.14.47,1.99.47h1.49c.92,0,1.64-.16,2.14-.47.51-.31.76-.76.76-1.35s-.2-.97-.61-1.23c-.4-.26-1.02-.43-1.86-.52l-4.25-.51c-1.64-.2-2.9-.82-3.78-1.84-.88-1.02-1.32-2.3-1.32-3.83,0-3.76,2.41-5.64,7.23-5.64h1.59c2.27,0,4.08.5,5.44,1.49s2.03,2.32,2.03,3.98h-4.96c0-.54-.22-.96-.66-1.25-.44-.29-1.05-.44-1.84-.44h-1.59c-.79,0-1.38.15-1.79.44-.41.29-.61.7-.61,1.22s.2.87.59,1.05c.39.18.95.32,1.67.4l4.05.51c1.82.23,3.2.87,4.12,1.92.92,1.06,1.38,2.45,1.38,4.19,0,1.82-.65,3.24-1.96,4.24-1.31,1-3.23,1.5-5.77,1.5h-1.49Z"/>
  </g>
  <path class="cls-6" d="m121.82,53.87c-.74-7.38-31.72-31.99-38.74-29.76-12.89,1.79-10.54,14.52-15.63,16.09-5.13.78-49.64,4.99-29.5,46.33,3.66,7.41,5.99,8.79,9.82,11.22,3.73,2.18,9.71,2.31,14.56-2.41,4.43-5.7,2.52-11.32.46-16.04-6.47-14.13,5.47-14.3,12.07-17.28,1.54,4.94,4.38,16.61,8.22,16.45,3.83-.16,39.72-9.87,38.76-24.61Z"/>
  <path class="cls-5" d="m116.33,53.4c-.24-5.53-26.5-25.16-32.26-23.23-5.76,1.93-2.84,8.95-5.31,12.86-56.12,1.01-41.49,55.29-23.31,48.99,9.96-3.34-7.01-17.4.88-26.93,6.69-8.31,24.37-9.87,24.73-7.83.73,4.09,1.62,16.31,4.71,16.05,3.09-.26,31.89-14.11,30.54-19.92Z"/>
  <path class="cls-3" d="m40.45,77.33c2.2-12.15,5.43-19.27,13.08-24.28,8.41-5.79,22.69-6.68,23.12-7.73.43-1.05-10.36,1.75-18.69,3.91-15.62,3.99-18.88,19.72-17.51,28.1Zm63.14-29.11c-1.78-1.79-14.28-10.84-17.7-11.47-3.41-.63-1.14,4.82-1.14,4.82,0,0,17.43,4.61,18.83,6.65Z"/>
  <path class="cls-1" d="m104.81,69.35s14.01-5.06,13.98-4.9c-.02.16-2.61-2.55-2.61-2.55l-3.63.56-8.05,2.66.3,4.24Z"/>
  <path class="cls-7" d="m116.16,53.36c1.48,7.69-30.79,20.51-30.79,20.51-2.96-2.05-4.74-15.89-7.7-17.69-5.33,2.05-21.91,6.15-22.8,11.53-.89,5.38,3.55,16.15,4.15,18.71,1.18,3.84-2.66,7.43-6.51,5.9-3.85-1.54-4.44-4.61-4.44-4.61,0,0,4.15,0,4.74-2.82.59-2.82-7.99-16.66-3.55-22.04,4.44-5.38,22.21-12.82,33.16-12.05l4.44,15.89s4.44-.26,29.31-13.33Z"/>
  <path class="cls-6" d="m34.63,88.38c-1.8,7.81,19.91,41.58,27.5,41.19,13.14,1.66,15.21-12.11,20.7-12.34,5.25.59,49.97,8.33,44.52-39.75-1.03-8.63-2.82-10.69-5.71-14.23-2.88-3.26-8.65-5.02-14.98-1.47-6.26,4.67-6.31,10.98-5.93,16.4,1.46,16.32-10.2,13.25-17.64,14.54.19-5.52,1.41-18.31-2.37-19.19-3.78-.87-41.99-.61-46.1,14.84Z"/>
  <path class="cls-5" d="m39.8,90.35c-1.65,5.76,17.17,33.13,23.43,32.71,6.26-.42,5.82-8.46,9.55-11.81,54.91,14.2,59.23-45.73,39.4-44.17-10.82.74.87,19.84-10.06,27.51-9.35,6.75-27.07,3.56-26.73,1.36.69-4.41,4-17.26.9-17.83-3.1-.57-35.83,5.88-36.5,12.24Z"/>
  <path class="cls-3" d="m121.75,86.29c-6.29,11.92-11.87,18.39-21.01,21.47-10.16,3.69-24.35.73-25.13,1.69-.78.97,10.67,1.01,19.51,1.05,16.55.13,25.1-15.2,26.63-24.21Zm-71.34,12.87c1.11,2.33,10.18,15.05,13.29,16.63,3.1,1.57,2.76-4.66,2.76-4.66,0,0-15.37-9.49-16.04-11.96Z"/>
  <path class="cls-1" d="m56.46,77.04s-15.35,1.42-15.27,1.26c.08-.16,1.66,3.34,1.66,3.34l3.72.4,8.73-.55,1.15-4.45Z"/>
  <path class="cls-7" d="m39.95,90.43c1.19-8.33,36.95-12.78,36.95-12.78,2.18,2.92-.82,17.67,1.44,20.32,5.88-.67,23.41-.39,26.11-5.7,2.7-5.31,2.06-17.61,2.36-20.41.16-4.28,5.13-6.94,8.35-4.31s2.74,5.96,2.74,5.96c0,0-4.03-1.13-5.57,1.62-1.54,2.75,2.08,19.34-4.08,23.69-6.16,4.34-25.97,7.18-36.36,3.42l1.11-17.59s-4.41-.94-33.06,5.78Z"/>
</svg>