<?xml version="1.0" encoding="UTF-8"?>
<svg xmlns="http://www.w3.org/2000/svg" viewBox="0 0 128 128">
<a href="https://www.example.com">
  <rect style="fill: color(display-p3 0.101961 0.101961 0.101961);" width="128" height="128" rx="21.84" ry="21.84"/>
  <path style="fill: color(display-p3 0.589825 0 1);" d="m72.22,9h-16.44c-.92,0-1.77.49-2.23,1.29l-8.22,14.26c-.46.8-.46,1.78,0,2.57l8.22,14.26c.46.8,1.31,1.29,2.23,1.29h16.44c.92,0,1.77-.49,2.23-1.29l8.22-14.26c.46-.8.46-1.78,0-2.57l-8.22-14.26c-.46-.8-1.31-1.29-2.23-1.29Z"/>
  <path style="fill: color(display-p3 0 0.635294 0.972549);" d="m39.15,28.08h-16.44c-.92,0-1.77.49-2.23,1.29l-8.22,14.26c-.46.8-.46,1.78,0,2.57l8.22,14.26c.46.8,1.31,1.29,2.23,1.29h16.44c.92,0,1.77-.49,2.23-1.29l8.22-14.26c.46-.8.46-1.78,0-2.57l-8.22-14.26c-.46-.8-1.31-1.29-2.23-1.29Z"/>
  <path style="fill: color(display-p3 0.231373 0.980392 0);" d="m105.29,28.08h-16.44c-.92,0-1.77.49-2.23,1.29l-8.22,14.26c-.46.8-.46,1.78,0,2.57l8.22,14.26c.46.8,1.31,1.29,2.23,1.29h16.44c.92,0,1.77-.49,2.23-1.29l8.22-14.26c.46-.8.46-1.78,0-2.57l-8.22-14.26c-.46-.8-1.31-1.29-2.23-1.29Z"/>
  <path style="fill: color(display-p3 0.678431 0.996078 0);" d="m72.22,47.16h-16.44c-.92,0-1.77.49-2.23,1.29l-8.22,14.26c-.46.8-.46,1.78,0,2.57l8.22,14.26c.46.8,1.31,1.29,2.23,1.29h16.44c.92,0,1.77-.49,2.23-1.29l8.22-14.26c.46-.8.46-1.78,0-2.57l-8.22-14.26c-.46-.8-1.31-1.29-2.23-1.29Z"/>
  <path style="fill: color(display-p3 1 1 0);" d="m39.15,66.24h-16.44c-.92,0-1.77.49-2.23,1.29l-8.22,14.26c-.46.8-.46,1.78,0,2.57l8.22,14.26c.46.8,1.31,1.29,2.23,1.29h16.44c.92,0,1.77-.49,2.23-1.29l8.22-14.26c.46-.8.46-1.78,0-2.57l-8.22-14.26c-.46-.8-1.31-1.29-2.23-1.29Z"/>
  <path style="fill: color(display-p3 1 0.435294 0);" d="m105.29,66.24h-16.44c-.92,0-1.77.49-2.23,1.29l-8.22,14.26c-.46.8-.46,1.78,0,2.57l8.22,14.26c.46.8,1.31,1.29,2.23,1.29h16.44c.92,0,1.77-.49,2.23-1.29l8.22-14.26c.46-.8.46-1.78,0-2.57l-8.22-14.26c-.46-.8-1.31-1.29-2.23-1.29Z"/>
  <path style="fill: color(display-p3 1 0 0);" d="m72.22,85.33h-16.44c-.92,0-1.77.49-2.23,1.29l-8.22,14.26c-.46.8-.46,1.78,0,2.57l8.22,14.26c.46.8,1.31,1.29,2.23,1.29h16.44c.92,0,1.77-.49,2.23-1.29l8.22-14.26c.46-.8.46-1.78,0-2.57l-8.22-14.26c-.46-.8-1.31-1.29-2.23-1.29Z"/>
</a>
</svg>
