<?xml version="1.0" encoding="UTF-8"?>
<svg xmlns="http://www.w3.org/2000/svg" viewBox="0 0 557 155">

<rect style="fill: #a1a1a1;" width="557" height="155" rx="40" ry="40"/>

<a href="https://protierlist.web.app">
<rect style="fill: color(display-p3 0.101961 0.101961 0.101961);" x="20.86" y="17.89" width="119.04" height="119.04" rx="20.31" ry="20.31"/>
<path style="fill: color(display-p3 0.589825 0 1);" d="m88.02,26.26h-15.29c-.86,0-1.65.46-2.08,1.2l-7.65,13.26c-.43.74-.43,1.65,0,2.39l7.65,13.26c.43.74,1.22,1.2,2.08,1.2h15.29c.86,0,1.65-.46,2.08-1.2l7.65-13.26c.43-.74.43-1.65,0-2.39l-7.65-13.26c-.43-.74-1.22-1.2-2.08-1.2Z"/>
<path style="fill: color(display-p3 0 0.635294 0.972549);" d="m57.27,44h-15.29c-.86,0-1.65.46-2.08,1.2l-7.65,13.26c-.43.74-.43,1.65,0,2.39l7.65,13.26c.43.74,1.22,1.2,2.08,1.2h15.29c.86,0,1.65-.46,2.08-1.2l7.65-13.26c.43-.74.43-1.65,0-2.39l-7.65-13.26c-.43-.74-1.22-1.2-2.08-1.2Z"/>
<path style="fill: color(display-p3 0.231373 0.980392 0);" d="m118.78,44h-15.29c-.86,0-1.65.46-2.08,1.2l-7.65,13.26c-.43.74-.43,1.65,0,2.39l7.65,13.26c.43.74,1.22,1.2,2.08,1.2h15.29c.86,0,1.65-.46,2.08-1.2l7.65-13.26c.43-.74.43-1.65,0-2.39l-7.65-13.26c-.43-.74-1.22-1.2-2.08-1.2Z"/>
<path style="fill: color(display-p3 0.678431 0.996078 0);" d="m88.02,61.75h-15.29c-.86,0-1.65.46-2.08,1.2l-7.65,13.26c-.43.74-.43,1.65,0,2.39l7.65,13.26c.43.74,1.22,1.2,2.08,1.2h15.29c.86,0,1.65-.46,2.08-1.2l7.65-13.26c.43-.74.43-1.65,0-2.39l-7.65-13.26c-.43-.74-1.22-1.2-2.08-1.2Z"/>
<path style="fill: color(display-p3 1 1 0);" d="m57.27,79.49h-15.29c-.86,0-1.65.46-2.08,1.2l-7.65,13.26c-.43.74-.43,1.65,0,2.39l7.65,13.26c.43.74,1.22,1.2,2.08,1.2h15.29c.86,0,1.65-.46,2.08-1.2l7.65-13.26c.43-.74.43-1.65,0-2.39l-7.65-13.26c-.43-.74-1.22-1.2-2.08-1.2Z"/>
<path style="fill: color(display-p3 1 0.435294 0);" d="m118.78,79.49h-15.29c-.86,0-1.65.46-2.08,1.2l-7.65,13.26c-.43.74-.43,1.65,0,2.39l7.65,13.26c.43.74,1.22,1.2,2.08,1.2h15.29c.86,0,1.65-.46,2.08-1.2l7.65-13.26c.43-.74.43-1.65,0-2.39l-7.65-13.26c-.43-.74-1.22-1.2-2.08-1.2Z"/>
<path style="fill: color(display-p3 1 0 0);" d="m88.02,97.24h-15.29c-.86,0-1.65.46-2.08,1.2l-7.65,13.26c-.43.74-.43,1.65,0,2.39l7.65,13.26c.43.74,1.22,1.2,2.08,1.2h15.29c.86,0,1.65-.46,2.08-1.2l7.65-13.26c.43-.74.43-1.65,0-2.39l-7.65-13.26c-.43-.74-1.22-1.2-2.08-1.2Z"/>
</a>

<path d="m159.9,92.56v-24.65h8.41c1.73,0,3.25.33,4.54.98,1.29.65,2.3,1.57,3,2.74.71,1.17,1.06,2.54,1.06,4.12s-.36,2.92-1.08,4.1-1.72,2.1-3,2.75c-1.28.65-2.79.98-4.52.98h-3.34v8.98h-5.06Zm5.06-13.37h3.34c1.08,0,1.94-.33,2.58-.98.64-.65.96-1.47.96-2.46s-.32-1.81-.96-2.46c-.64-.65-1.5-.98-2.58-.98h-3.34v6.89Z"/>
<path d="m180.83,92.56v-18.57h4.9v3.51c.27-1.19.86-2.13,1.77-2.82.91-.69,2.05-1.03,3.43-1.03,1.87,0,3.33.63,4.39,1.89,1.06,1.26,1.59,2.99,1.59,5.2v1.86h-5.06v-1.52c0-.97-.26-1.72-.78-2.25-.52-.53-1.25-.79-2.19-.79s-1.68.3-2.19.89c-.52.6-.78,1.45-.78,2.55v11.07h-5.07Z"/>
<path d="m208.32,92.89c-1.64,0-3.07-.31-4.29-.93-1.21-.62-2.16-1.49-2.82-2.6s-1-2.41-1-3.9v-4.39c0-1.49.33-2.79,1-3.9s1.6-1.98,2.82-2.6c1.22-.62,2.65-.93,4.29-.93s3.1.31,4.31.93c1.2.62,2.14,1.49,2.8,2.6s1,2.41,1,3.9v4.39c0,1.49-.33,2.79-1,3.9s-1.6,1.98-2.8,2.6c-1.21.62-2.64.93-4.31.93Zm0-4.39c.99,0,1.74-.26,2.26-.79.52-.53.78-1.28.78-2.25v-4.39c0-.99-.26-1.74-.78-2.26-.52-.52-1.27-.78-2.26-.78s-1.72.26-2.25.78c-.53.52-.79,1.27-.79,2.26v4.39c0,.97.26,1.72.79,2.25s1.28.79,2.25.79Z"/>
<path d="m246.3,92.56v-20.09h-6.25v-4.56h17.56v4.56h-6.25v20.09h-5.06Z"/>
<path d="m261.32,92.56v-4.56h6.15v-9.45h-5.47v-4.56h10.53v14.01h5.33v4.56h-16.54Zm8.44-21.51c-.92,0-1.66-.24-2.21-.71s-.83-1.11-.83-1.92.28-1.45.83-1.92,1.29-.71,2.21-.71,1.66.24,2.21.71.83,1.11.83,1.92-.28,1.45-.83,1.92-1.29.71-2.21.71Z"/>
<path d="m289.38,92.89c-1.64,0-3.08-.31-4.3-.93-1.23-.62-2.17-1.49-2.84-2.6s-1-2.41-1-3.9v-4.39c0-1.49.33-2.79,1-3.9s1.61-1.98,2.84-2.6c1.23-.62,2.66-.93,4.3-.93s3.07.31,4.27.93c1.2.62,2.14,1.49,2.8,2.6s1,2.41,1,3.9v3.44h-11.38v.95c0,1.17.28,2.03.83,2.57.55.54,1.38.81,2.48.81.72,0,1.35-.11,1.89-.34.54-.22.86-.56.95-1.01h4.96c-.36,1.62-1.25,2.93-2.67,3.92-1.42.99-3.13,1.49-5.13,1.49Zm-3.31-11.82v.44l6.55-.07v-.44c0-1.15-.26-2.04-.79-2.67-.53-.63-1.35-.95-2.45-.95s-1.93.33-2.48.98c-.55.65-.83,1.55-.83,2.7Z"/>
<path d="m302.38,92.56v-18.57h4.9v3.51c.27-1.19.86-2.13,1.77-2.82.91-.69,2.05-1.03,3.43-1.03,1.87,0,3.33.63,4.39,1.89,1.06,1.26,1.59,2.99,1.59,5.2v1.86h-5.06v-1.52c0-.97-.26-1.72-.78-2.25-.52-.53-1.25-.79-2.19-.79s-1.68.3-2.19.89c-.52.6-.78,1.45-.78,2.55v11.07h-5.07Z"/>
<path d="m343.88,92.56v-24.65h5.06v20.09h9.96v4.56h-15.03Z"/>
<path d="m362.62,92.56v-4.56h6.15v-9.45h-5.47v-4.56h10.53v14.01h5.33v4.56h-16.54Zm8.44-21.51c-.92,0-1.66-.24-2.21-.71s-.83-1.11-.83-1.92.28-1.45.83-1.92,1.29-.71,2.21-.71,1.66.24,2.21.71.83,1.11.83,1.92-.28,1.45-.83,1.92-1.29.71-2.21.71Z"/>
<path d="m389.86,92.89c-1.53,0-2.87-.24-4.02-.73-1.15-.48-2.04-1.15-2.68-2.01-.64-.85-.96-1.86-.96-3h4.96c0,.63.24,1.1.71,1.42.47.32,1.14.47,1.99.47h1.49c.92,0,1.64-.16,2.14-.47.51-.31.76-.76.76-1.35s-.2-.97-.61-1.23c-.4-.26-1.02-.43-1.86-.52l-4.25-.51c-1.64-.2-2.9-.82-3.78-1.84-.88-1.02-1.32-2.3-1.32-3.83,0-3.76,2.41-5.64,7.23-5.64h1.59c2.27,0,4.08.5,5.44,1.49s2.03,2.32,2.03,3.98h-4.96c0-.54-.22-.96-.66-1.25-.44-.29-1.05-.44-1.84-.44h-1.59c-.79,0-1.38.15-1.79.44-.41.29-.61.7-.61,1.22s.2.87.59,1.05c.39.18.95.32,1.67.4l4.05.51c1.82.23,3.2.87,4.12,1.92.92,1.06,1.38,2.45,1.38,4.19,0,1.82-.65,3.24-1.96,4.24-1.31,1-3.23,1.5-5.77,1.5h-1.49Z"/>
<path d="m412.75,92.56c-1.89,0-3.38-.54-4.46-1.62s-1.62-2.57-1.62-4.46v-7.93h-5v-4.56h5v-5.23h5.06v5.23h7.26v4.56h-7.26v7.77c0,.5.13.9.39,1.21.26.32.64.47,1.13.47h5.57v4.56h-6.08Z"/>
<path d="m442.7,92.56v-24.65h6.18l2.5,10.53,2.5-10.53h6.25v24.65h-4.63v-9.45c0-2.48.11-4.86.32-7.14.21-2.29.43-4.29.66-6.03l-3.11,12.16h-4.05l-3.04-11.85c.22,1.46.46,3.33.69,5.59.24,2.26.35,4.69.35,7.28v9.45h-4.63Z"/>
<path d="m469.28,92.89c-1.85,0-3.31-.54-4.39-1.6-1.08-1.07-1.62-2.47-1.62-4.2,0-1.87.66-3.34,1.99-4.42,1.33-1.08,3.2-1.62,5.61-1.62h3.65v-1.18c0-.7-.24-1.24-.73-1.64-.48-.39-1.18-.59-2.08-.59s-1.54.17-2.04.51c-.51.34-.78.83-.83,1.49h-4.79c.07-1.82.79-3.28,2.16-4.36,1.37-1.08,3.23-1.62,5.57-1.62s4.37.56,5.74,1.69c1.37,1.13,2.06,2.7,2.06,4.73v12.49h-4.9v-3.21c-.22,1.1-.82,1.97-1.77,2.6s-2.17.95-3.63.95Zm1.79-4.05c1.06,0,1.9-.26,2.52-.79.62-.53.93-1.22.93-2.08v-1.89h-3.55c-.9,0-1.59.22-2.08.66-.48.44-.73,1.01-.73,1.71s.25,1.27.76,1.72c.51.45,1.22.68,2.14.68Z"/>
<path d="m484.2,92.56v-24.65h5.06v13.1h2.57l3.88-7.02h5.57l-5.17,9.08,5.27,9.49h-5.67l-3.92-7.29h-2.53v7.29h-5.06Z"/>
<path d="m512.22,92.89c-1.64,0-3.08-.31-4.3-.93-1.23-.62-2.17-1.49-2.84-2.6s-1-2.41-1-3.9v-4.39c0-1.49.33-2.79,1-3.9s1.61-1.98,2.84-2.6c1.23-.62,2.66-.93,4.3-.93s3.07.31,4.27.93c1.2.62,2.14,1.49,2.8,2.6s1,2.41,1,3.9v3.44h-11.38v.95c0,1.17.28,2.03.83,2.57.55.54,1.38.81,2.48.81.72,0,1.35-.11,1.89-.34.54-.22.86-.56.95-1.01h4.96c-.36,1.62-1.25,2.93-2.67,3.92-1.42.99-3.13,1.49-5.13,1.49Zm-3.31-11.82v.44l6.55-.07v-.44c0-1.15-.26-2.04-.79-2.67-.53-.63-1.35-.95-2.45-.95s-1.93.33-2.48.98c-.55.65-.83,1.55-.83,2.7Z"/>
<path d="m525.22,92.56v-18.57h4.9v3.51c.27-1.19.86-2.13,1.77-2.82.91-.69,2.05-1.03,3.43-1.03,1.87,0,3.33.63,4.39,1.89,1.06,1.26,1.59,2.99,1.59,5.2v1.86h-5.06v-1.52c0-.97-.26-1.72-.78-2.25-.52-.53-1.25-.79-2.19-.79s-1.68.3-2.19.89c-.52.6-.78,1.45-.78,2.55v11.07h-5.07Z"/>

</svg>